<?xml version="1.0" encoding="utf-8"?>
<!-- Generator: Adobe Illustrator 16.0.4, SVG Export Plug-In . SVG Version: 6.00 Build 0)  -->
<!DOCTYPE svg PUBLIC "-//W3C//DTD SVG 1.1//EN" "http://www.w3.org/Graphics/SVG/1.1/DTD/svg11.dtd">
<svg version="1.1" id="Layer_1" xmlns="http://www.w3.org/2000/svg" xmlns:xlink="http://www.w3.org/1999/xlink" x="0px" y="0px"
	 width="144px" height="144px" viewBox="0 0 144 144" enable-background="new 0 0 144 144" xml:space="preserve">
<g>
	<g>
		<g>
			<polygon fill="#20372B" points="118.418,24.817 118.1,17.356 118.932,17.325 119.25,24.783 			"/>
		</g>
		<g>
			
				<rect x="116.643" y="22.27" transform="matrix(0.0094 1 -1 0.0094 141.9262 -97.8992)" fill="#20372B" width="7.465" height="0.83"/>
		</g>
		<g>
			<polygon fill="#20372B" points="122.35,28.098 121.525,28.076 121.699,20.615 122.529,20.634 			"/>
		</g>
		<g>
			<polygon fill="#20372B" points="123.812,29.837 122.988,29.787 123.42,22.331 124.244,22.382 			"/>
		</g>
		<g>
			<polygon fill="#20372B" points="125.221,31.619 124.396,31.541 125.08,24.107 125.898,24.183 			"/>
		</g>
		<g>
			<polygon fill="#20372B" points="126.562,33.452 125.736,33.346 126.674,25.94 127.498,26.041 			"/>
		</g>
		<g>
			<polygon fill="#20372B" points="127.848,35.328 127.025,35.196 128.213,27.823 129.029,27.957 			"/>
		</g>
		<g>
			<polygon fill="#20372B" points="129.064,37.251 128.244,37.092 129.686,29.765 130.496,29.925 			"/>
		</g>
		<g>
			<polygon fill="#20372B" points="130.215,39.219 129.406,39.027 131.094,31.75 131.9,31.941 			"/>
		</g>
		<g>
			<polygon fill="#20372B" points="131.299,41.223 130.504,41.007 132.436,33.793 133.242,34.015 			"/>
		</g>
		<g>
			<polygon fill="#20372B" points="132.328,43.268 131.529,43.03 133.711,35.885 134.506,36.129 			"/>
		</g>
		<g>
			
				<rect x="133.679" y="37.958" transform="matrix(0.9453 0.3261 -0.3261 0.9453 20.9221 -41.4452)" fill="#20372B" width="0.833" height="7.465"/>
		</g>
		<g>
			
				<rect x="134.688" y="40.107" transform="matrix(0.9342 0.3568 -0.3568 0.9342 24.5374 -45.322)" fill="#20372B" width="0.824" height="7.465"/>
		</g>
		<g>
			<polygon fill="#20372B" points="134.969,49.632 134.199,49.312 137.107,42.434 137.871,42.752 			"/>
		</g>
		<g>
			<polygon fill="#20372B" points="135.699,51.82 134.943,51.474 138.092,44.697 138.842,45.047 			"/>
		</g>
		<g>
			<polygon fill="#20372B" points="136.355,54.041 135.619,53.669 138.996,47.005 139.74,47.384 			"/>
		</g>
		<g>
			<polygon fill="#20372B" points="136.943,56.293 136.215,55.898 139.828,49.356 140.557,49.763 			"/>
		</g>
		<g>
			<polygon fill="#20372B" points="137.455,58.575 136.74,58.149 140.578,51.745 141.287,52.171 			"/>
		</g>
		<g>
			
				<rect x="139.147" y="53.79" transform="matrix(0.8394 0.5435 -0.5435 0.8394 53.6762 -66.6133)" fill="#20372B" width="0.828" height="7.469"/>
		</g>
		<g>
			<polygon fill="#20372B" points="138.223,63.216 137.549,62.741 141.83,56.63 142.512,57.103 			"/>
		</g>
		<g>
			<polygon fill="#20372B" points="138.496,65.58 137.832,65.073 142.328,59.119 142.988,59.62 			"/>
		</g>
		<g>
			
				<rect x="140.297" y="61.064" transform="matrix(0.7782 0.628 -0.628 0.7782 71.9018 -73.9951)" fill="#20372B" width="0.826" height="7.468"/>
		</g>
		<g>
			<polygon fill="#20372B" points="138.777,70.364 138.152,69.814 143.064,64.191 143.693,64.735 			"/>
		</g>
		<g>
			<polygon fill="#20372B" points="138.795,72.785 138.186,72.222 143.299,66.774 143.898,67.338 			"/>
		</g>
		<g>
			<polygon fill="#20372B" points="138.713,75.224 138.135,74.643 143.439,69.376 144.021,69.971 			"/>
		</g>
		<g>
			
				<rect x="140.609" y="71.085" transform="matrix(0.6783 0.7348 -0.7348 0.6783 100.3472 -79.5538)" fill="#20372B" width="0.829" height="7.469"/>
		</g>
		<g>
			
				<rect x="140.463" y="73.576" transform="matrix(0.6548 0.7558 -0.7558 0.6548 107.0536 -79.7875)" fill="#20372B" width="0.832" height="7.467"/>
		</g>
		<g>
			
				<rect x="140.229" y="76.042" transform="matrix(0.6241 0.7813 -0.7813 0.6241 115.1999 -79.9025)" fill="#20372B" width="0.832" height="7.476"/>
		</g>
		<g>
			<polygon fill="#20372B" points="137.576,84.78 137.078,84.111 143.082,79.665 143.57,80.327 			"/>
		</g>
		<g>
			<polygon fill="#20372B" points="137.088,87.095 136.615,86.413 142.764,82.186 143.236,82.86 			"/>
		</g>
		<g>
			<polygon fill="#20372B" points="136.51,89.377 136.066,88.683 142.369,84.668 142.811,85.368 			"/>
		</g>
		<g>
			<polygon fill="#20372B" points="135.869,91.629 135.447,90.916 141.879,87.126 142.301,87.845 			"/>
		</g>
		<g>
			<polygon fill="#20372B" points="135.145,93.846 134.744,93.117 141.311,89.559 141.711,90.29 			"/>
		</g>
		<g>
			
				<rect x="137.088" y="90.257" transform="matrix(0.4458 0.8951 -0.8951 0.4458 160.3386 -70.9925)" fill="#20372B" width="0.828" height="7.468"/>
		</g>
		<g>
			
				<rect x="136.288" y="92.51" transform="matrix(0.4174 0.9087 -0.9087 0.4174 167.1009 -68.1539)" fill="#20372B" width="0.833" height="7.473"/>
		</g>
		<g>
			
				<rect x="135.409" y="94.735" transform="matrix(0.3823 0.924 -0.924 0.3823 174.8889 -64.6843)" fill="#20372B" width="0.833" height="7.463"/>
		</g>
		<g>
			
				<rect x="134.465" y="96.911" transform="matrix(0.3514 0.9362 -0.9362 0.3514 181.7116 -60.9981)" fill="#20372B" width="0.828" height="7.468"/>
		</g>
		<g>
			<polygon fill="#20372B" points="130.447,104.362 130.184,103.575 137.268,101.204 137.529,101.998 			"/>
		</g>
		<g>
			
				<rect x="132.349" y="101.149" transform="matrix(0.2843 0.9587 -0.9587 0.2843 195.5685 -52.2244)" fill="#20372B" width="0.831" height="7.465"/>
		</g>
		<g>
			<polygon fill="#20372B" points="128.092,108.277 127.885,107.475 135.109,105.601 135.322,106.401 			"/>
		</g>
		<g>
			
				<rect x="129.958" y="105.217" transform="matrix(0.2157 0.9765 -0.9765 0.2157 208.6403 -41.8554)" fill="#20372B" width="0.833" height="7.466"/>
		</g>
		<g>
			<polygon fill="#20372B" points="125.486,112.012 125.334,111.198 132.67,109.816 132.828,110.636 			"/>
		</g>
		<g>
			<polygon fill="#20372B" points="124.096,113.81 123.973,112.987 131.346,111.857 131.479,112.678 			"/>
		</g>
		<g>
			
				<rect x="125.885" y="110.97" transform="matrix(0.1155 0.9933 -0.9933 0.1155 225.6508 -23.9974)" fill="#20372B" width="0.829" height="7.466"/>
		</g>
		<g>
			<polygon fill="#20372B" points="121.131,117.252 121.064,116.421 128.504,115.789 128.57,116.618 			"/>
		</g>
		<g>
			<polygon fill="#20372B" points="119.566,118.895 119.52,118.065 126.98,117.685 127.025,118.517 			"/>
		</g>
		<g>
			<polygon fill="#20372B" points="117.943,120.477 117.932,119.648 125.406,119.52 125.414,120.349 			"/>
		</g>
		<g>
			<polygon fill="#20372B" points="123.742,122.135 116.273,122.009 116.289,121.18 123.76,121.306 			"/>
		</g>
		<g>
			<polygon fill="#20372B" points="122.012,123.863 114.555,123.488 114.592,122.656 122.053,123.031 			"/>
		</g>
		<g>
			<polygon fill="#20372B" points="120.221,125.527 112.781,124.901 112.855,124.076 120.293,124.704 			"/>
		</g>
		<g>
			
				<rect x="110.985" y="125.869" transform="matrix(0.9931 0.1175 -0.1175 0.9931 15.6375 -12.6079)" fill="#20372B" width="7.47" height="0.832"/>
		</g>
		<g>
			<polygon fill="#20372B" points="116.477,128.679 109.104,127.553 109.219,126.734 116.605,127.862 			"/>
		</g>
		<g>
			<polygon fill="#20372B" points="114.525,130.165 107.184,128.785 107.34,127.973 114.676,129.348 			"/>
		</g>
		<g>
			<polygon fill="#20372B" points="112.525,131.578 105.229,129.949 105.416,129.139 112.705,130.768 			"/>
		</g>
		<g>
			<polygon fill="#20372B" points="110.465,132.926 103.236,131.05 103.445,130.249 110.68,132.125 			"/>
		</g>
		<g>
			
				<rect x="101.169" y="132.337" transform="matrix(0.9588 0.2839 -0.2839 0.9588 42.0067 -24.3206)" fill="#20372B" width="7.467" height="0.828"/>
		</g>
		<g>
			
				<rect x="99.07" y="133.428" transform="matrix(0.9484 0.3169 -0.3169 0.9484 47.7193 -25.6823)" fill="#20372B" width="7.469" height="0.831"/>
		</g>
		<g>
			
				<rect x="96.931" y="134.45" transform="matrix(0.9368 0.3499 -0.3499 0.9368 53.5457 -26.6949)" fill="#20372B" width="7.464" height="0.83"/>
		</g>
		<g>
			<polygon fill="#20372B" points="101.777,137.623 94.873,134.771 95.193,134.008 102.096,136.856 			"/>
		</g>
		<g>
			<polygon fill="#20372B" points="99.498,138.61 92.695,135.524 93.043,134.771 99.838,137.86 			"/>
		</g>
		<g>
			<polygon fill="#20372B" points="97.17,139.527 90.482,136.203 90.848,135.459 97.545,138.783 			"/>
		</g>
		<g>
			<polygon fill="#20372B" points="94.807,140.361 88.242,136.807 88.637,136.077 95.211,139.63 			"/>
		</g>
		<g>
			
				<rect x="85.666" y="138.453" transform="matrix(0.8617 0.5074 -0.5074 0.8617 82.8237 -26.1563)" fill="#20372B" width="7.464" height="0.829"/>
		</g>
		<g>
			
				<rect x="83.312" y="139.014" transform="matrix(0.8436 0.5369 -0.5369 0.8436 88.4744 -24.9336)" fill="#20372B" width="7.466" height="0.835"/>
		</g>
		<g>
			
				<rect x="80.92" y="139.505" transform="matrix(0.8239 0.5667 -0.5667 0.8239 94.2054 -23.3374)" fill="#20372B" width="7.47" height="0.827"/>
		</g>
		<g>
			<polygon fill="#20372B" points="84.992,142.876 78.998,138.43 79.496,137.764 85.496,142.213 			"/>
		</g>
		<g>
			
				<rect x="76.068" y="140.224" transform="matrix(0.7816 0.6238 -0.6238 0.7816 105.1602 -19.0613)" fill="#20372B" width="7.464" height="0.83"/>
		</g>
		<g>
			<polygon fill="#20372B" points="79.893,143.62 74.232,138.755 74.768,138.127 80.434,142.989 			"/>
		</g>
		<g>
			<polygon fill="#20372B" points="77.301,143.855 71.818,138.793 72.375,138.18 77.863,143.245 			"/>
		</g>
		<g>
			
				<rect x="68.592" y="140.659" transform="matrix(0.7103 0.7039 -0.7039 0.7103 120.2598 -10.0378)" fill="#20372B" width="7.464" height="0.829"/>
		</g>
		<g>
			
				<rect x="66.07" y="140.628" transform="matrix(0.6846 0.7289 -0.7289 0.6846 124.8244 -6.3976)" fill="#20372B" width="7.469" height="0.827"/>
		</g>
		<g>
			<polygon fill="#20372B" points="69.448,144.002 64.532,138.377 65.161,137.832 70.077,143.458 			"/>
		</g>
		<g>
			
				<rect x="61.096" y="140.292" transform="matrix(0.6309 0.7758 -0.7758 0.6309 133.0963 1.6337)" fill="#20372B" width="7.469" height="0.831"/>
		</g>
		<g>
			
				<rect x="58.645" y="139.994" transform="matrix(0.6025 0.7981 -0.7981 0.6025 136.8577 6.026)" fill="#20372B" width="7.469" height="0.83"/>
		</g>
		<g>
			
				<rect x="56.223" y="139.615" transform="matrix(0.5739 0.8189 -0.8189 0.5739 140.2205 10.567)" fill="#20372B" width="7.465" height="0.828"/>
		</g>
		<g>
			
				<rect x="53.836" y="139.148" transform="matrix(0.5443 0.8389 -0.8389 0.5443 143.3047 15.3022)" fill="#20372B" width="7.462" height="0.83"/>
		</g>
		<g>
			
				<rect x="51.467" y="138.602" transform="matrix(0.5146 0.8575 -0.8575 0.5146 145.9989 20.1526)" fill="#20372B" width="7.469" height="0.835"/>
		</g>
		<g>
			<polygon fill="#20372B" points="54.316,141.863 50.698,135.328 51.423,134.928 55.039,141.456 			"/>
		</g>
		<g>
			
				<rect x="46.837" y="137.273" transform="matrix(0.4533 0.8914 -0.8914 0.4533 150.3817 30.1995)" fill="#20372B" width="7.472" height="0.831"/>
		</g>
		<g>
			
				<rect x="44.575" y="136.489" transform="matrix(0.4214 0.9069 -0.9069 0.4214 152.1013 35.3998)" fill="#20372B" width="7.465" height="0.831"/>
		</g>
		<g>
			
				<rect x="42.346" y="135.634" transform="matrix(0.39 0.9208 -0.9208 0.39 153.3873 40.5627)" fill="#20372B" width="7.466" height="0.831"/>
		</g>
		<g>
			<polygon fill="#20372B" points="44.844,138.749 42.17,131.774 42.943,131.48 45.62,138.458 			"/>
		</g>
		<g>
			<polygon fill="#20372B" points="42.564,137.779 40.131,130.715 40.919,130.449 43.349,137.51 			"/>
		</g>
		<g>
			<polygon fill="#20372B" points="40.328,136.729 38.146,129.593 38.934,129.348 41.123,136.487 			"/>
		</g>
		<g>
			
				<rect x="33.828" y="131.484" transform="matrix(0.26 0.9656 -0.9656 0.26 155.1575 61.3333)" fill="#20372B" width="7.469" height="0.828"/>
		</g>
		<g>
			<polygon fill="#20372B" points="35.985,134.414 34.29,127.14 35.103,126.953 36.792,134.228 			"/>
		</g>
		<g>
			<polygon fill="#20372B" points="33.883,133.151 32.439,125.82 33.249,125.665 34.693,132.988 			"/>
		</g>
		<g>
			<polygon fill="#20372B" points="31.822,131.815 30.628,124.441 31.447,124.313 32.642,131.679 			"/>
		</g>
		<g>
			<polygon fill="#20372B" points="29.812,130.411 28.874,123.007 29.69,122.896 30.637,130.306 			"/>
		</g>
		<g>
			
				<rect x="24.189" y="124.773" transform="matrix(0.0929 0.9957 -0.9957 0.0929 149.9789 85.7582)" fill="#20372B" width="7.471" height="0.833"/>
		</g>
		<g>
			<polygon fill="#20372B" points="25.953,127.413 25.509,119.955 26.331,119.911 26.775,127.363 			"/>
		</g>
		<g>
			<polygon fill="#20372B" points="24.098,125.82 23.911,118.354 24.736,118.331 24.924,125.796 			"/>
		</g>
		<g>
			<polygon fill="#20372B" points="23.132,124.17 22.297,124.16 22.363,116.689 23.188,116.702 			"/>
		</g>
		<g>
			<polygon fill="#20372B" points="21.384,122.481 20.562,122.444 20.872,114.989 21.703,115.018 			"/>
		</g>
		<g>
			<polygon fill="#20372B" points="19.699,120.735 18.876,120.671 19.439,113.229 20.268,113.287 			"/>
		</g>
		<g>
			
				<rect x="17.656" y="111.44" transform="matrix(0.9944 0.1058 -0.1058 0.9944 12.2924 -1.2657)" fill="#20372B" width="0.83" height="7.469"/>
		</g>
		<g>
			<polygon fill="#20372B" points="16.512,117.071 15.693,116.955 16.756,109.566 17.582,109.685 			"/>
		</g>
		<g>
			<polygon fill="#20372B" points="15.017,115.16 14.201,115.014 15.515,107.668 16.328,107.809 			"/>
		</g>
		<g>
			<polygon fill="#20372B" points="13.57,113.194 12.766,113.024 14.323,105.72 15.139,105.895 			"/>
		</g>
		<g>
			<polygon fill="#20372B" points="12.203,111.183 11.396,110.979 13.216,103.737 14.013,103.938 			"/>
		</g>
		<g>
			<polygon fill="#20372B" points="10.896,109.115 10.102,108.888 12.156,101.717 12.957,101.942 			"/>
		</g>
		<g>
			<polygon fill="#20372B" points="9.658,107.008 8.873,106.752 11.177,99.647 11.969,99.903 			"/>
		</g>
		<g>
			<polygon fill="#20372B" points="8.494,104.851 7.709,104.566 10.264,97.546 11.043,97.827 			"/>
		</g>
		<g>
			<polygon fill="#20372B" points="7.399,102.648 6.63,102.336 9.42,95.413 10.186,95.72 			"/>
		</g>
		<g>
			
				<rect x="7.098" y="93.087" transform="matrix(0.9133 0.4073 -0.4073 0.9133 40.0906 5.336)" fill="#20372B" width="0.832" height="7.47"/>
		</g>
		<g>
			<polygon fill="#20372B" points="5.429,98.114 4.688,97.752 7.953,91.035 8.694,91.4 			"/>
		</g>
		<g>
			
				<rect x="5.534" y="88.56" transform="matrix(0.8835 0.4685 -0.4685 0.8835 43.929 7.966)" fill="#20372B" width="0.832" height="7.468"/>
		</g>
		<g>
			<polygon fill="#20372B" points="3.775,93.427 3.059,93.005 6.787,86.534 7.512,86.953 			"/>
		</g>
		<g>
			<polygon fill="#20372B" points="3.071,91.022 2.361,90.578 6.32,84.242 7.024,84.687 			"/>
		</g>
		<g>
			
				<rect x="3.772" y="81.519" transform="matrix(0.831 0.5563 -0.5563 0.831 48.1367 12.081)" fill="#20372B" width="0.832" height="7.471"/>
		</g>
		<g>
			
				<rect x="3.351" y="79.115" transform="matrix(0.8075 0.5899 -0.5899 0.8075 49.5974 13.7283)" fill="#20372B" width="0.833" height="7.463"/>
		</g>
		<g>
			
				<rect x="3.011" y="76.678" transform="matrix(0.7871 0.6168 -0.6168 0.7871 50.325 15.0033)" fill="#20372B" width="0.831" height="7.464"/>
		</g>
		<g>
			
				<rect x="2.756" y="74.213" transform="matrix(0.7657 0.6432 -0.6432 0.7657 50.8821 16.2244)" fill="#20372B" width="0.833" height="7.47"/>
		</g>
		<g>
			<polygon fill="#20372B" points="0.808,78.508 0.195,77.951 5.205,72.416 5.823,72.973 			"/>
		</g>
		<g>
			<polygon fill="#20372B" points="0.617,75.915 0.02,75.34 5.232,69.986 5.823,70.564 			"/>
		</g>
		<g>
			<polygon fill="#20372B" points="0.526,73.307 -0.049,72.713 5.345,67.551 5.926,68.147 			"/>
		</g>
		<g>
			<polygon fill="#20372B" points="0.526,70.715 -0.03,70.096 5.542,65.13 6.104,65.749 			"/>
		</g>
		<g>
			<polygon fill="#20372B" points="0.617,68.141 0.082,67.503 5.836,62.741 6.364,63.385 			"/>
		</g>
		<g>
			
				<rect x="3.088" y="59.255" transform="matrix(0.6087 0.7934 -0.7934 0.6087 51.3466 21.8716)" fill="#20372B" width="0.827" height="7.465"/>
		</g>
		<g>
			
				<rect x="3.444" y="56.824" transform="matrix(0.5807 0.8141 -0.8141 0.5807 50.9185 22.2463)" fill="#20372B" width="0.835" height="7.468"/>
		</g>
		<g>
			
				<rect x="3.892" y="54.422" transform="matrix(0.5523 0.8337 -0.8337 0.5523 50.4121 22.447)" fill="#20372B" width="0.833" height="7.469"/>
		</g>
		<g>
			<polygon fill="#20372B" points="1.861,58.094 1.427,57.381 7.793,53.484 8.229,54.19 			"/>
		</g>
		<g>
			<polygon fill="#20372B" points="2.39,55.642 1.987,54.916 8.488,51.251 8.891,51.971 			"/>
		</g>
		<g>
			
				<rect x="5.708" y="47.401" transform="matrix(0.4626 0.8865 -0.8865 0.4626 48.6258 22.05)" fill="#20372B" width="0.832" height="7.473"/>
		</g>
		<g>
			<polygon fill="#20372B" points="3.691,50.845 3.337,50.095 10.08,46.886 10.433,47.637 			"/>
		</g>
		<g>
			<polygon fill="#20372B" points="4.466,48.493 4.135,47.736 10.983,44.766 11.318,45.525 			"/>
		</g>
		<g>
			
				<rect x="8.222" y="40.694" transform="matrix(0.367 0.9302 -0.9302 0.367 46.7946 20.0912)" fill="#20372B" width="0.826" height="7.471"/>
		</g>
		<g>
			
				<rect x="9.207" y="38.536" transform="matrix(0.3335 0.9427 -0.9427 0.3335 46.2649 19.0987)" fill="#20372B" width="0.836" height="7.47"/>
		</g>
		<g>
			<polygon fill="#20372B" points="7.243,41.67 6.996,40.875 14.116,38.631 14.37,39.421 			"/>
		</g>
		<g>
			<polygon fill="#20372B" points="8.319,39.475 8.1,38.674 15.292,36.673 15.518,37.473 			"/>
		</g>
		<g>
			<polygon fill="#20372B" points="9.467,37.323 9.276,36.51 16.537,34.759 16.734,35.565 			"/>
		</g>
		<g>
			<polygon fill="#20372B" points="10.692,35.209 10.521,34.396 17.838,32.892 18,33.705 			"/>
		</g>
		<g>
			<polygon fill="#20372B" points="11.972,33.146 11.837,32.329 19.201,31.075 19.339,31.889 			"/>
		</g>
		<g>
			<polygon fill="#20372B" points="13.335,31.132 13.225,30.306 20.627,29.299 20.733,30.125 			"/>
		</g>
		<g>
			<polygon fill="#20372B" points="14.764,29.161 14.673,28.336 22.104,27.585 22.188,28.404 			"/>
		</g>
		<g>
			<polygon fill="#20372B" points="16.247,27.248 16.193,26.419 23.639,25.912 23.702,26.741 			"/>
		</g>
		<g>
			<polygon fill="#20372B" points="17.797,25.377 17.775,24.552 25.233,24.299 25.268,25.124 			"/>
		</g>
		<g>
			<rect x="19.408" y="22.738" fill="#20372B" width="7.474" height="0.835"/>
		</g>
		<g>
			
				<rect x="21.095" y="21.111" transform="matrix(0.9994 0.034 -0.034 0.9994 0.7455 -0.8311)" fill="#20372B" width="7.475" height="0.832"/>
		</g>
		<g>
			<polygon fill="#20372B" points="30.271,20.618 22.816,20.111 22.879,19.285 30.328,19.789 			"/>
		</g>
		<g>
			
				<rect x="24.631" y="18.024" transform="matrix(0.9948 0.1014 -0.1014 0.9948 2.0155 -2.7806)" fill="#20372B" width="7.465" height="0.829"/>
		</g>
		<g>
			
				<rect x="26.473" y="16.568" transform="matrix(0.991 0.1341 -0.1341 0.991 2.5495 -3.896)" fill="#20372B" width="7.467" height="0.833"/>
		</g>
		<g>
			
				<rect x="28.367" y="15.18" transform="matrix(0.9857 0.1682 -0.1682 0.9857 3.0815 -5.1787)" fill="#20372B" width="7.47" height="0.832"/>
		</g>
		<g>
			
				<rect x="30.308" y="13.85" transform="matrix(0.9795 0.2013 -0.2013 0.9795 3.5691 -6.5613)" fill="#20372B" width="7.47" height="0.834"/>
		</g>
		<g>
			<polygon fill="#20372B" points="39.565,14.286 32.297,12.531 32.495,11.725 39.756,13.481 			"/>
		</g>
		<g>
			<polygon fill="#20372B" points="41.551,13.21 34.355,11.212 34.571,10.411 41.77,12.412 			"/>
		</g>
		<g>
			<polygon fill="#20372B" points="43.577,12.203 36.457,9.954 36.698,9.166 43.825,11.412 			"/>
		</g>
		<g>
			
				<rect x="38.526" y="9.211" transform="matrix(0.9428 0.3333 -0.3333 0.9428 5.6242 -13.5342)" fill="#20372B" width="7.469" height="0.829"/>
		</g>
		<g>
			
				<rect x="40.685" y="8.223" transform="matrix(0.9308 0.3655 -0.3655 0.9308 6.2303 -15.6373)" fill="#20372B" width="7.468" height="0.83"/>
		</g>
		<g>
			<polygon fill="#20372B" points="49.879,9.592 43.024,6.621 43.358,5.858 50.207,8.828 			"/>
		</g>
		<g>
			<polygon fill="#20372B" points="52.049,8.866 45.307,5.658 45.66,4.91 52.402,8.115 			"/>
		</g>
		<g>
			
				<rect x="47.391" y="5.707" transform="matrix(0.8878 0.4601 -0.4601 0.8878 8.551 -22.8383)" fill="#20372B" width="7.471" height="0.831"/>
		</g>
		<g>
			<polygon fill="#20372B" points="56.483,7.634 49.979,3.966 50.382,3.244 56.886,6.915 			"/>
		</g>
		<g>
			<polygon fill="#20372B" points="58.741,7.134 52.374,3.237 52.806,2.527 59.176,6.431 			"/>
		</g>
		<g>
			<polygon fill="#20372B" points="61.033,6.715 54.794,2.593 55.257,1.898 61.487,6.021 			"/>
		</g>
		<g>
			<polygon fill="#20372B" points="63.341,6.366 57.262,2.03 57.747,1.354 63.819,5.689 			"/>
		</g>
		<g>
			<polygon fill="#20372B" points="65.677,6.104 59.76,1.552 60.264,0.896 66.189,5.448 			"/>
		</g>
		<g>
			<polygon fill="#20372B" points="68.041,5.927 62.287,1.161 62.815,0.523 68.566,5.282 			"/>
		</g>
		<g>
			<polygon fill="#20372B" points="70.42,5.826 64.842,0.86 65.396,0.241 70.978,5.208 			"/>
		</g>
		<g>
			
				<rect x="66.678" y="2.52" transform="matrix(0.7226 0.6913 -0.6913 0.7226 21.5614 -47.8608)" fill="#20372B" width="7.469" height="0.827"/>
		</g>
		<g>
			<polygon fill="#20372B" points="75.246,5.886 70.04,0.535 70.624,-0.038 75.838,5.308 			"/>
		</g>
		<g>
			<polygon fill="#20372B" points="77.641,6.043 72.628,0.511 73.24,-0.046 78.258,5.489 			"/>
		</g>
		<g>
			<polygon fill="#20372B" points="80.018,6.286 75.199,0.579 75.838,0.044 80.648,5.751 			"/>
		</g>
		<g>
			
				<rect x="76.65" y="3.002" transform="matrix(0.617 0.787 -0.787 0.617 33.4769 -61.9496)" fill="#20372B" width="7.47" height="0.833"/>
		</g>
		<g>
			
				<rect x="79.083" y="3.345" transform="matrix(0.5887 0.8083 -0.8083 0.5887 37.0986 -65.3988)" fill="#20372B" width="7.471" height="0.827"/>
		</g>
		<g>
			<polygon fill="#20372B" points="86.963,7.506 82.795,1.317 83.475,0.849 87.66,7.04 			"/>
		</g>
		<g>
			
				<rect x="83.865" y="4.267" transform="matrix(0.5301 0.8479 -0.8479 0.5301 45.13 -72.0754)" fill="#20372B" width="7.468" height="0.832"/>
		</g>
		<g>
			
				<rect x="86.209" y="4.854" transform="matrix(0.5001 0.866 -0.866 0.5001 49.5267 -75.2545)" fill="#20372B" width="7.468" height="0.829"/>
		</g>
		<g>
			<polygon fill="#20372B" points="93.643,9.429 90.135,2.831 90.875,2.439 94.371,9.035 			"/>
		</g>
		<g>
			<polygon fill="#20372B" points="95.797,10.214 92.527,3.5 93.268,3.134 96.541,9.848 			"/>
		</g>
		<g>
			
				<rect x="93.041" y="7.08" transform="matrix(0.406 0.9139 -0.9139 0.406 64.333 -83.9886)" fill="#20372B" width="7.466" height="0.828"/>
		</g>
		<g>
			<polygon fill="#20372B" points="99.994,12.003 97.205,5.076 97.969,4.765 100.766,11.69 			"/>
		</g>
		<g>
			<polygon fill="#20372B" points="102.039,13 99.488,5.982 100.26,5.698 102.818,12.712 			"/>
		</g>
		<g>
			<polygon fill="#20372B" points="104.041,14.063 101.723,6.965 102.518,6.708 104.836,13.807 			"/>
		</g>
		<g>
			<polygon fill="#20372B" points="105.998,15.195 103.928,8.022 104.732,7.787 106.795,14.964 			"/>
		</g>
		<g>
			<polygon fill="#20372B" points="107.916,16.391 106.098,9.147 106.898,8.941 108.719,16.187 			"/>
		</g>
		<g>
			<polygon fill="#20372B" points="109.783,17.647 108.213,10.346 109.025,10.174 110.602,17.469 			"/>
		</g>
		<g>
			<polygon fill="#20372B" points="111.615,18.967 110.285,11.612 111.102,11.468 112.434,18.816 			"/>
		</g>
		<g>
			
				<rect x="109.526" y="16.171" transform="matrix(0.1435 0.9896 -0.9896 0.1435 113.4184 -97.8814)" fill="#20372B" width="7.47" height="0.833"/>
		</g>
		<g>
			<polygon fill="#20372B" points="115.117,21.774 114.291,14.357 115.117,14.264 115.949,21.688 			"/>
		</g>
		<g>
			
				<rect x="113.188" y="19.1" transform="matrix(0.0766 0.9971 -0.9971 0.0766 127.4221 -98.5605)" fill="#20372B" width="7.47" height="0.827"/>
		</g>
		<g>
			<polygon fill="#20372B" points="118.418,24.814 118.1,17.354 118.932,17.319 119.25,24.783 			"/>
		</g>
	</g>
	<path fill="#20372B" d="M115.227,57.049c-0.682-0.679-2.725-2.727-4.762-4.766c-2.045-2.042-3.406-0.685-4.773-2.042
		c-1.363-1.366,0-4.087-3.404-7.489c-3.395-3.402-6.805-1.363-7.486-2.039c-0.682-0.682,0-2.727-2.725-4.09
		c-2.727-1.357-5.104-0.338-5.781,0.347c-0.682,0.676-1.705,3.062-0.344,5.782c1.363,2.721,3.398,2.045,4.09,2.721
		c0.453,0.463-0.311,2.13,0.152,4.203c-0.988,2.164-4.328,6.054-10.021,11.119c-1.953,1.73-4.973,4.319-8.332,7.181
		c-3.368-2.861-6.382-5.45-8.337-7.181c-5.698-5.065-9.041-8.955-10.026-11.119c0.463-2.073-0.297-3.74,0.16-4.203
		c0.678-0.676,2.723,0,4.084-2.721c1.363-2.721,0.337-5.106-0.344-5.782c-0.679-0.685-3.062-1.704-5.785-0.347
		c-2.718,1.363-2.048,3.408-2.718,4.09c-0.688,0.676-4.093-1.363-7.493,2.039c-3.399,3.402-2.039,6.123-3.399,7.489
		c-1.37,1.357-2.727,0-4.775,2.042c-2.035,2.039-4.081,4.087-4.762,4.766c-0.679,0.679,0,1.357,0.682,2.042
		c0.685,0.679,3.064,3.062,3.064,3.062s2.38,2.383,3.065,3.065c0.675,0.682,1.357,1.359,2.045,0.682
		c0.682-0.682,2.717-2.728,4.756-4.766c2.048-2.043,0.685-3.406,2.048-4.764c0.922-0.929,2.479-0.597,4.45-1.359
		c2.205,1.135,5.986,4.434,10.835,9.894c1.651,1.857,4.084,4.691,6.786,7.865c-5.641,4.775-11.173,9.416-13.578,11.511
		c-5.11,4.421-15.535,14.316-15.995,16.677c-0.344,1.701,0.675,3.405,2.374,5.107l0.028,0.028c1.707,1.697,3.399,2.717,5.106,2.379
		c2.364-0.47,12.252-10.89,16.677-15.998c2.023-2.33,6.439-7.574,11.051-13.031c4.603,5.457,9.015,10.701,11.035,13.031
		c4.426,5.108,14.324,15.528,16.682,15.998c1.701,0.338,3.406-0.682,5.109-2.379l0.025-0.028c1.703-1.702,2.723-3.406,2.385-5.107
		c-0.477-2.36-10.891-12.256-15.998-16.677c-2.416-2.095-7.938-6.735-13.588-11.511c2.703-3.174,5.139-6.008,6.789-7.865
		c4.857-5.46,8.631-8.759,10.836-9.894c1.971,0.763,3.527,0.431,4.453,1.359c1.361,1.357,0,2.721,2.043,4.764
		c2.041,2.038,4.08,4.084,4.768,4.766c0.68,0.678,1.361,0,2.041-0.682c0.674-0.683,3.062-3.065,3.062-3.065s2.383-2.383,3.062-3.062
		C115.227,58.406,115.908,57.728,115.227,57.049z"/>
</g>
</svg>
